<?xml version="1.0"?>
<svg width="500" height="500" xmlns="http://www.w3.org/2000/svg" xmlns:svg="http://www.w3.org/2000/svg" preserveAspectRatio="xMidYMid meet" version="1.0">
 <g class="layer">
  <title>Layer 1</title>
  <g fill="#000000" id="svg_1" transform="matrix(0.143719 0 0 -0.143719 -104.001 -103.512)">
   <path d="m858.35,-748.95c-49,-23 -89,-64 -109,-113c-14,-33 -16,-210 -16,-1600c0,-1499 1,-1565 19,-1604c22,-48 82,-100 131,-115c23,-6 561,-9 1601,-7l1565,3l42,28c23,15 54,46 69,69l28,42l3,1565c2,1040 -1,1578 -7,1601c-15,49 -67,109 -115,131c-39,18 -105,19 -1606,19c-1502,0 -1567,-1 -1605,-19zm2985,-726l0,-315l-592,-2l-591,-3l-391,-527l-391,-527l-422,0l-423,-1l0,315l0,315l262,2l261,3l391,527l391,527l753,0l752,1l0,-315zm-2346,267c68,-31 139,-102 171,-174c58,-129 27,-286 -74,-381c-75,-70 -131,-92 -231,-92c-71,0 -94,4 -140,26c-285,134 -258,537 43,635c57,19 172,11 231,-14zm2346,-1252l0,-320l-337,0l-338,-1l-375,-505c-206,-279 -385,-517 -397,-530l-22,-24l-671,0l-670,0l0,315l0,315l516,2l517,3l382,514c211,282 390,522 399,532c15,18 39,19 506,19l490,0l0,-320z" id="svg_2"/>
  </g>
  <ellipse cx="-544.5" cy="-17" fill="#FF0000" id="svg_3" rx="2" ry="0" stroke="#000000"/>
 </g>
</svg>